<?xml version="1.0" encoding="UTF-8"?>
<svg width="100px" height="19px" viewBox="0 0 100 19" version="1.1" xmlns="http://www.w3.org/2000/svg" xmlns:xlink="http://www.w3.org/1999/xlink">
    <!-- Generator: sketchtool 44.1 (41455) - http://www.bohemiancoding.com/sketch -->
    <title>0B619F35-C4A0-41E4-9635-95A2715ACD3A</title>
    <desc>Created with sketchtool.</desc>
    <defs></defs>
    <g id="Handbouq" stroke="none" stroke-width="1" fill="none" fill-rule="evenodd">
        <g id="HandBouq-Home" transform="translate(-117.000000, -61.000000)">
            <g id="Logo" transform="translate(117.000000, 57.000000)">
                <text id="HandBouq" font-family="FuturaPT-Demi, Futura PT" font-size="18" font-weight="500" fill="#2C2C2C">
                    <tspan x="21" y="18">Hand</tspan>
                    <tspan x="63.624" y="18" font-family="FuturaPT-Medium, Futura PT" font-weight="400">Bouq</tspan>
                </text>
                <g transform="translate(0.000000, 4.000000)" fill="#2B2B2B">
                    <path d="M7.01486316,15.7617544 C9.29724912,16.4084912 11.9264421,15.2177544 12.6576702,12.8775439 C12.952407,11.9345263 12.952407,10.873614 12.6576702,9.8125614 C12.5987228,9.63585965 12.5397754,9.40007018 12.4808281,9.1642807 C12.0683368,7.86757895 11.3609684,5.92259649 12.0683368,2.62168421 L12.3041263,1.67866667 L11.3020211,1.97340351 C11.2430737,1.97340351 3.87535439,4.44891228 3.87535439,11.6399298 C3.87535439,13.4334737 4.8613193,14.9089825 6.53317895,15.5952982 C6.69149474,15.6602807 6.85233684,15.7157193 7.01486316,15.7617544" id="Fill-1"></path>
                    <path d="M3.87258947,15.8475509 C4.06318596,15.8554105 4.16185263,15.6197614 4.02753684,15.4841825 C3.95258947,15.408393 3.87932632,15.3313404 3.81448421,15.2486737 C3.62978246,15.0134456 3.46557193,14.7620772 3.32367719,14.4987789 C3.03988772,13.9720421 2.84550175,13.3968842 2.75665965,12.8050246 C2.72690526,12.6065684 2.68929123,12.4119018 2.67665965,12.2099368 C2.66360702,11.9970246 2.69658947,11.7914105 2.69658947,11.5808842 C2.69658947,8.49737544 3.91357193,6.18832281 5.43665965,4.49302456 C5.51694035,4.4034807 5.50992281,4.26509474 5.41799298,4.1872 C3.5808,2.63112982 1.74065965,2.00769123 1.53195789,1.92067368 C1.52002807,1.91590175 1.50781754,1.91211228 1.49532632,1.90916491 L0.851677193,1.75772632 C0.697150877,1.72137544 0.558484211,1.86018246 0.594835088,2.01456842 L0.751466667,2.68081404 C1.45883509,5.92249825 0.810414035,7.86762105 0.397922807,9.22327018 C0.340940351,9.45049825 0.229361404,9.67786667 0.221501754,9.85232281 C0.2208,9.86551579 0.21925614,9.87800702 0.215747368,9.8906386 C-0.0736561404,10.9459368 -0.0718315789,12.0576561 0.221080702,12.9365333 C0.571957895,13.989586 1.26725614,14.918007 2.26767719,15.4290246 C2.59960702,15.5985684 2.95778246,15.7146386 3.32381754,15.7822877 C3.50430877,15.8156912 3.68690526,15.8373053 3.86992281,15.8475509 L3.87258947,15.8475509 Z" id="Fill-4"></path>
                    <path d="M6.54308772,3.44981053 C7.4277193,2.69542456 8.35164912,2.09724912 9.07529825,1.70356491 C9.10603509,1.68686316 9.12961404,1.66202105 9.14491228,1.63072281 C9.28385965,1.34693333 9.60357895,0.655424561 9.79459649,0.240687719 C9.85508772,0.109459649 9.73438596,-0.0317333333 9.59501754,0.00630175439 L8.64961404,0.264126316 C6.89649123,0.81205614 5.80540351,1.56363509 5.0922807,2.23479298 C5.0114386,2.31086316 5.02421053,2.44082807 5.11684211,2.5018807 C5.43024561,2.70805614 6.01859649,3.21893333 6.27964912,3.44910877 C6.35487719,3.51549474 6.46673684,3.51493333 6.54308772,3.44981053" id="Fill-6"></path>
                </g>
            </g>
        </g>
    </g>
</svg>