<?xml version="1.0" encoding="UTF-8"?>
<svg width="16px" height="16px" viewBox="0 0 16 16" version="1.1" xmlns="http://www.w3.org/2000/svg" xmlns:xlink="http://www.w3.org/1999/xlink">
    <!-- Generator: sketchtool 44.1 (41455) - http://www.bohemiancoding.com/sketch -->
    <title>B721346D-4B43-4892-A89B-5E365642B485</title>
    <desc>Created with sketchtool.</desc>
    <defs></defs>
    <g id="Handbouq" stroke="none" stroke-width="1" fill="none" fill-rule="evenodd">
        <g id="HandBouq-Home" transform="translate(-1312.000000, -728.000000)" fill-rule="nonzero" fill="#000000">
            <g id="Social-Icons" transform="translate(1280.000000, 728.000000)">
                <g id="Instagram" transform="translate(32.000000, 0.000000)">
                    <path d="M8.02162162,5.36216216 C6.57297297,5.36216216 5.38378378,6.55135135 5.38378378,8 C5.38378378,9.44864865 6.57297297,10.6378378 8.02162162,10.6378378 C9.47027027,10.6378378 10.6594595,9.44864865 10.6594595,8 C10.6594595,6.55135135 9.47027027,5.36216216 8.02162162,5.36216216 Z" id="Shape"></path>
                    <path d="M10.7459459,0.194594595 L5.2972973,0.194594595 C2.48648649,0.194594595 0.194594595,2.48648649 0.194594595,5.2972973 L0.194594595,10.7243243 C0.194594595,13.5351351 2.48648649,15.827027 5.2972973,15.827027 L10.7243243,15.827027 C13.5351351,15.827027 15.827027,13.5351351 15.827027,10.7243243 L15.827027,5.27567568 C15.827027,2.48648649 13.5351351,0.194594595 10.7459459,0.194594595 Z M8.02162162,12.0648649 C5.77297297,12.0648649 3.95675676,10.2486486 3.95675676,8 C3.95675676,5.75135135 5.77297297,3.93513514 8.02162162,3.93513514 C10.2702703,3.93513514 12.0864865,5.75135135 12.0864865,8 C12.0864865,10.2486486 10.2702703,12.0648649 8.02162162,12.0648649 Z M12.0216216,4.92972973 C11.4810811,4.92972973 11.027027,4.47567568 11.027027,3.93513514 C11.027027,3.39459459 11.4810811,2.94054054 12.0216216,2.94054054 C12.5621622,2.94054054 13.0162162,3.39459459 13.0162162,3.93513514 C12.9945946,4.4972973 12.5621622,4.92972973 12.0216216,4.92972973 Z" id="Shape"></path>
                </g>
            </g>
        </g>
    </g>
</svg>